<svg width="65.000000" height="58.000000" viewBox="0 0 65 58" fill="none" xmlns="http://www.w3.org/2000/svg" xmlns:xlink="http://www.w3.org/1999/xlink">
	<desc>
			Created with Pixso.
	</desc>
	<defs>
		<linearGradient x1="0.000000" y1="29.000000" x2="65.000000" y2="29.000000" id="paint_linear_517_150_0" gradientUnits="userSpaceOnUse">
			<stop offset="0.036458" stop-color="#C3956A"/>
			<stop offset="1.000000" stop-color="#A24F03"/>
		</linearGradient>
	</defs>
	<path d="M64.34 13.42L56.62 7.52C56.18 7.22 55.57 6.95 54.93 6.76C54.29 6.56 53.62 6.44 53.09 6.44L30.87 6.44L33.47 22.55L53.09 22.55C53.62 22.55 54.29 22.43 54.93 22.23C55.57 22.04 56.18 21.77 56.62 21.47L64.34 15.57C64.78 15.28 65 14.89 65 14.5C65 14.1 64.78 13.71 64.34 13.42ZM27.62 0L24.37 0C23.47 0 22.75 0.72 22.75 1.61L22.75 12.88L11.9 12.88C11.36 12.88 10.7 13 10.06 13.2C9.42 13.4 8.8 13.66 8.37 13.96L0.65 19.86C0.21 20.15 0 20.55 0 20.94C0 21.33 0.21 21.72 0.65 22.02L8.37 27.92C8.8 28.22 9.42 28.49 10.06 28.68C10.7 28.87 11.36 29 11.9 29L22.75 29L22.75 56.38C22.75 57.27 23.47 58 24.37 58L27.62 58C28.52 58 29.25 57.27 29.25 56.38L29.25 1.61C29.25 0.72 28.52 0 27.62 0Z" fill="url(#paint_linear_517_150_0)" fill-opacity="1.000000" fill-rule="nonzero"/>
</svg>
