<svg width="56.000000" height="70.000000" viewBox="0 0 56 70" fill="none" xmlns="http://www.w3.org/2000/svg" xmlns:xlink="http://www.w3.org/1999/xlink">
	<desc>
			Created with Pixso.
	</desc>
	<defs/>
	<path id="Vector" d="M18.95 52.2C17.85 50.92 16.71 49.7 15.49 48.39C8.69 41.12 -0.48 31.3 0.01 19.63C0.4 10.49 7.21 4.5 16.02 1.76C23.83 -0.59 32.16 -0.59 39.97 1.76C48.78 4.5 55.59 10.49 55.98 19.64C56.46 31.31 47.29 41.12 40.5 48.4C39.27 49.71 38.14 50.92 37.03 52.21L36.1 53.3L36.1 53.39L19.96 53.39L18.95 52.23L18.95 52.2ZM30.21 6.81L30.21 45.3C37.28 30.58 44.65 14.78 35.78 7.6L35.78 7.59C33.95 7.18 32.09 6.91 30.21 6.81L30.21 6.81ZM26.12 45.56L26.12 6.78C24.24 6.88 22.36 7.13 20.52 7.52C11.44 14.7 18.96 30.71 26.12 45.52L26.12 45.56ZM43.52 10.74C46.61 19.4 41.83 31.31 36.32 43C42.19 36.7 49.56 28.42 49.21 19.9C49.05 15.98 46.84 12.9 43.52 10.74L43.52 10.74ZM20.13 43.49C14.47 31.56 9.48 19.36 12.76 10.55C9.29 12.74 6.95 15.86 6.78 19.9C6.42 28.65 14.19 37.13 20.13 43.49L20.13 43.49Z" fill="#FFFFFF" fill-opacity="1.000000" fill-rule="evenodd"/>
	<path id="Vector" d="M36.09 54.88L35.31 61.13L35.31 66.34C35.31 68.34 33.36 70 30.98 70L25.08 70C22.7 70 20.75 68.35 20.75 66.34L20.75 61.34L19.96 54.91L23.27 54.91L23.81 59.27L32.23 59.27L32.78 54.91L36.09 54.88Z" fill="#FFFFFF" fill-opacity="1.000000" fill-rule="evenodd"/>
</svg>
