<svg width="62.000000" height="61.000000" viewBox="0 0 62 61" fill="none" xmlns="http://www.w3.org/2000/svg" xmlns:xlink="http://www.w3.org/1999/xlink">
	<desc>
			Created with Pixso.
	</desc>
	<defs>
		<linearGradient x1="0.000000" y1="30.500004" x2="62.000000" y2="30.500004" id="paint_linear_517_152_0" gradientUnits="userSpaceOnUse">
			<stop offset="0.036458" stop-color="#C3956A"/>
			<stop offset="1.000000" stop-color="#A24F03"/>
		</linearGradient>
	</defs>
	<path d="M16.31 44.94C16.31 44.94 31.06 42.95 37.36 36.76C43.66 30.57 45.68 16.05 45.68 16.05C45.68 16.05 30.93 18.04 24.63 24.23C18.34 30.43 16.31 44.94 16.31 44.94ZM27.82 27.36C30.46 24.77 35.52 22.92 39.86 21.77C38.69 26.03 36.81 31.04 34.18 33.62C32.42 35.35 29.57 35.35 27.82 33.62C26.06 31.9 26.06 29.1 27.82 27.36ZM31 0C13.87 0 0 13.65 0 30.49C0 47.34 13.87 61 31 61C48.11 61 62 47.34 62 30.49C62 13.65 48.11 0 31 0ZM30.99 54.64C17.44 54.64 6.45 43.83 6.45 30.49C6.45 17.16 17.44 6.35 30.99 6.35C44.55 6.35 55.54 17.16 55.54 30.49C55.54 43.83 44.55 54.64 30.99 54.64Z" fill="url(#paint_linear_517_152_0)" fill-opacity="1.000000" fill-rule="nonzero"/>
</svg>
