<svg width="63.000000" height="62.000000" viewBox="0 0 63 62" fill="none" xmlns="http://www.w3.org/2000/svg" xmlns:xlink="http://www.w3.org/1999/xlink">
	<desc>
			Created with Pixso.
	</desc>
	<defs>
		<linearGradient x1="0.000000" y1="31.000000" x2="63.000000" y2="31.000000" id="paint_linear_517_154_0" gradientUnits="userSpaceOnUse">
			<stop offset="0.036458" stop-color="#C3956A"/>
			<stop offset="1.000000" stop-color="#A24F03"/>
		</linearGradient>
	</defs>
	<path d="M31.5 0C14.12 0 0 13.9 0 31C0 48.09 14.12 62 31.5 62C48.86 62 63 48.09 63 31C63 13.9 48.86 0 31.5 0ZM58.36 31C58.36 37.04 56.28 42.62 52.8 47.08C51.81 46.32 50.77 44.28 51.75 42.16C52.74 40.03 53 35.09 52.77 33.17C52.56 31.25 51.54 26.63 48.79 26.59C46.04 26.55 44.16 25.65 42.52 22.44C39.13 15.77 48.88 14.48 45.49 10.79C44.55 9.75 39.64 15.06 38.93 7.98C38.88 7.48 39.37 6.72 40.03 5.93C50.67 9.45 58.36 19.35 58.36 31ZM27.81 4.82C27.16 6.05 25.47 6.55 24.44 7.48C22.19 9.48 21.23 9.2 20.02 11.12C18.8 13.03 14.88 15.8 14.88 17.18C14.88 18.57 16.86 20.21 17.85 19.89C18.84 19.57 21.46 19.59 22.99 20.12C24.53 20.65 35.83 21.19 32.23 30.59C31.09 33.58 26.09 33.08 24.75 38.03C24.55 38.75 23.86 41.86 23.82 42.87C23.74 44.44 24.95 50.36 23.41 50.36C21.86 50.36 17.71 45.06 17.71 44.11C17.71 43.15 16.63 39.78 16.63 36.9C16.63 34.03 11.65 34.07 11.65 30.25C11.65 26.8 14.35 25.08 13.74 23.42C13.15 21.78 8.4 21.72 6.43 21.52C9.88 12.7 18.01 6.15 27.81 4.82ZM23.04 56.09C24.66 55.25 24.82 54.16 26.29 54.11C27.96 54.03 29.32 53.46 31.21 53.05C32.88 52.7 35.88 51.02 38.51 50.81C40.74 50.63 45.12 50.92 46.3 53.03C42.06 55.81 36.96 57.44 31.49 57.44C28.54 57.44 25.7 56.95 23.04 56.09Z" fill="url(#paint_linear_517_154_0)" fill-opacity="1.000000" fill-rule="nonzero"/>
</svg>
