<svg width="60.999992" height="64.000000" viewBox="0 0 61 64" fill="none" xmlns="http://www.w3.org/2000/svg" xmlns:xlink="http://www.w3.org/1999/xlink">
	<desc>
			Created with Pixso.
	</desc>
	<defs>
		<linearGradient x1="0.000000" y1="32.000000" x2="61.000000" y2="32.000000" id="paint_linear_517_156_0" gradientUnits="userSpaceOnUse">
			<stop offset="0.036458" stop-color="#C3956A"/>
			<stop offset="1.000000" stop-color="#A24F03"/>
		</linearGradient>
	</defs>
	<path d="M60.68 57.92L56.28 44.8L51.44 44.8L54.13 57.6L6.87 57.6L9.55 44.8L4.72 44.8L0.31 57.92C-0.81 61.26 1.17 64 4.72 64L56.28 64C59.82 64 61.8 61.26 60.68 57.92ZM46.61 16C46.61 7.16 39.4 0 30.5 0C21.6 0 14.38 7.16 14.38 16C14.38 31.28 30.5 48 30.5 48C30.5 48 46.61 31.28 46.61 16ZM21.8 16.19C21.8 11.42 25.69 7.55 30.5 7.55C35.3 7.55 39.2 11.42 39.2 16.19C39.2 20.96 35.3 24.83 30.5 24.83C25.69 24.83 21.8 20.96 21.8 16.19Z" fill="url(#paint_linear_517_156_0)" fill-opacity="1.000000" fill-rule="nonzero"/>
</svg>
